<?xml version="1.0" encoding="UTF-8" standalone="no"?>
<!-- Created with Inkscape (http://www.inkscape.org/) -->

<svg
   xmlns:ns0="http://www.iki.fi/pav/software/textext/"
   xmlns:dc="http://purl.org/dc/elements/1.1/"
   xmlns:cc="http://creativecommons.org/ns#"
   xmlns:rdf="http://www.w3.org/1999/02/22-rdf-syntax-ns#"
   xmlns:svg="http://www.w3.org/2000/svg"
   xmlns="http://www.w3.org/2000/svg"
   xmlns:xlink="http://www.w3.org/1999/xlink"
   xmlns:sodipodi="http://sodipodi.sourceforge.net/DTD/sodipodi-0.dtd"
   xmlns:inkscape="http://www.inkscape.org/namespaces/inkscape"
   width="216.29227"
   height="216.47757"
   id="svg2"
   version="1.1"
   inkscape:version="0.48.3.1 r9886"
   sodipodi:docname="logo_psom.svg"
   inkscape:export-filename="/home/pbellec/svn/psom/logo_psom.png"
   inkscape:export-xdpi="71.887154"
   inkscape:export-ydpi="71.887154">
  <sodipodi:namedview
     id="base"
     pagecolor="#ffffff"
     bordercolor="#666666"
     borderopacity="1.0"
     inkscape:pageopacity="0"
     inkscape:pageshadow="2"
     inkscape:zoom="0.49497475"
     inkscape:cx="170.97026"
     inkscape:cy="15.175402"
     inkscape:document-units="px"
     inkscape:current-layer="layer1"
     showgrid="false"
     inkscape:window-width="1305"
     inkscape:window-height="744"
     inkscape:window-x="61"
     inkscape:window-y="24"
     inkscape:window-maximized="1"
     fit-margin-top="0"
     fit-margin-left="0"
     fit-margin-right="0"
     fit-margin-bottom="0" />
  <defs
     id="defs4" />
  <metadata
     id="metadata7">
    <rdf:RDF>
      <cc:Work
         rdf:about="">
        <dc:format>image/svg+xml</dc:format>
        <dc:type
           rdf:resource="http://purl.org/dc/dcmitype/StillImage" />
        <dc:title />
      </cc:Work>
    </rdf:RDF>
  </metadata>
  <g
     inkscape:label="Layer 1"
     inkscape:groupmode="layer"
     id="layer1"
     transform="translate(-111.30867,-17.404797)">
    <path
       sodipodi:type="arc"
       style="fill:#ffffff;fill-opacity:0.97254902;stroke:#000000;stroke-width:3.03990698;stroke-miterlimit:3.79999995;stroke-opacity:1;stroke-dasharray:none"
       id="path2991"
       sodipodi:cx="98.571426"
       sodipodi:cy="89.260002"
       sodipodi:rx="108.57143"
       sodipodi:ry="108.57143"
       d="m 207.14285,89.260002 c 0,59.962348 -48.60908,108.571428 -108.571424,108.571428 C 38.609083,197.83143 -10,149.22235 -10,89.260002 -10,29.297659 38.609083,-19.311424 98.571426,-19.311424 c 59.962344,0 108.571424,48.609083 108.571424,108.571426 z"
       transform="matrix(0.98233065,0,0,0.98233065,122.62507,38.053392)" />
    <g
       id="g3039"
       transform="matrix(21.596416,0,0,21.596416,-4711.7872,-2743.5485)"
       ns0:preamble=""
       ns0:text="$\\psi$"
       style="fill:#808080">
      <defs
         id="defs3041">
        <g
           id="g3043">
          <symbol
             id="textext-904fc768-0"
             overflow="visible"
             style="overflow:visible">
            <path
               id="path3046"
               d="m 4.8125,-6.65625 c 0,-0.046875 0.015625,-0.109375 0.015625,-0.15625 0,-0.09375 -0.0625,-0.109375 -0.109375,-0.109375 -0.109375,0 -0.109375,0.03125 -0.15625,0.203125 L 2.90625,-0.125 c -0.75,-0.09375 -1.125,-0.46875 -1.125,-1.125 0,-0.203125 0,-0.453125 0.53125,-1.84375 0.046875,-0.125 0.109375,-0.296875 0.109375,-0.5 0,-0.4375 -0.3125,-0.8125 -0.8125,-0.8125 -0.953125,0 -1.3125,1.453125 -1.3125,1.53125 0,0.109375 0.09375,0.109375 0.109375,0.109375 0.109375,0 0.109375,-0.03125 0.15625,-0.1875 0.28125,-0.9375 0.671875,-1.234375 1.015625,-1.234375 0.078125,0 0.25,0 0.25,0.3125 0,0.265625 -0.109375,0.515625 -0.234375,0.859375 C 1.109375,-1.75 1.109375,-1.5 1.109375,-1.328125 1.109375,-0.375 1.890625,0.03125 2.84375,0.09375 2.765625,0.453125 2.765625,0.46875 2.625,1 2.609375,1.109375 2.40625,1.90625 2.40625,1.9375 c 0,0.015625 0,0.109375 0.109375,0.109375 0.03125,0 0.078125,0 0.09375,-0.046875 0.03125,-0.015625 0.09375,-0.265625 0.125,-0.40625 l 0.375,-1.484375 c 0.375,0 1.25,0 2.1875,-1.0625 0.40625,-0.46875 0.609375,-0.90625 0.71875,-1.203125 0.09375,-0.25 0.3125,-1.109375 0.3125,-1.546875 0,-0.5625 -0.265625,-0.703125 -0.4375,-0.703125 -0.25,0 -0.5,0.265625 -0.5,0.484375 0,0.125 0.0625,0.1875 0.15625,0.265625 0.109375,0.109375 0.359375,0.359375 0.359375,0.84375 0,0.640625 -0.515625,1.453125 -0.875,1.8125 -0.875,0.890625 -1.515625,0.890625 -1.875,0.890625 z m 0,0"
               style="stroke:none"
               inkscape:connector-curvature="0" />
          </symbol>
        </g>
      </defs>
      <g
         id="textext-904fc768-1"
         style="fill:#808080">
        <g
           id="g3049"
           style="fill:#808080;fill-opacity:1">
          <use
             id="use3051"
             y="134.765"
             x="223.43201"
             xlink:href="#textext-904fc768-0"
             width="744.09448"
             height="1052.3622"
             style="fill:#808080" />
        </g>
      </g>
    </g>
    <path
       id="path3144"
       style="fill:#000000"
       d="m 214.79193,212.32454 c -13.89528,-4.96547 -23.98463,-17.3213 -27.97939,-34.2647 -1.81297,-7.69002 -2.32561,-20.39698 -0.82269,-20.39698 0.49933,0 1.83294,3.4867 2.96361,7.74823 2.47428,9.32517 6.69447,18.09413 10.77097,22.38048 6.77115,7.11966 23.54234,9.90806 33.20571,5.52076 7.5275,-3.41761 10.58008,-11.54046 7.30676,-19.44309 -2.52948,-6.10663 -8.26788,-8.14856 -18.95677,-6.74549 0,0 -6.55075,-7.05125 -8.63773,-19.57315 l 6.71445,0.60883 c 8.08708,0.73332 14.19305,-1.05432 17.36213,-5.08306 2.97795,-3.78588 2.91356,-5.25009 -0.40039,-9.10275 -4.78198,-5.55936 -13.36828,-4.15106 -30.75325,5.04408 l -8.77181,-14.70419 3.67748,-2.80496 c 9.21581,-7.02927 25.21758,-10.54339 34.32422,-7.53792 8.29497,2.73757 14.38325,13.60015 12.75692,22.76031 -1.09956,6.19289 -6.06531,14.86673 -9.90178,17.29579 l -3.30855,2.09482 4.57008,2.06081 c 7.76602,3.50194 12.50702,0.82493 18.17138,-10.26047 7.83893,-15.34093 12.92303,-19.31228 24.74534,-19.32928 5.5047,-0.008 7.46391,0.56951 11.47887,3.38315 10.02048,7.02215 15.47661,21.56341 14.27821,38.05243 -1.51796,20.88331 -11.40976,33.55013 -26.20005,33.55013 -8.11705,0 -13.34899,-2.84694 -17.51376,-9.53002 -3.65808,-5.87027 -5.30657,-17.49645 -3.20582,-22.6108 1.00785,-2.45359 1.19002,-2.53681 1.2559,-0.57395 0.12111,3.60866 4.22664,9.47401 7.99584,11.42313 9.24794,4.78231 22.52406,-1.22615 27.77656,-12.57102 3.98787,-8.61324 1.84843,-25.22699 -3.62572,-28.15671 -1.14525,-0.61292 -3.97525,-1.11439 -6.2887,-1.11439 -4.91778,0 -8.77984,3.53552 -14.19442,12.99427 -1.87197,3.27021 -5.02235,7.4955 -7.00084,9.38952 -3.21455,3.07735 -4.36243,3.44366 -10.79152,3.44366 l -7.19449,0 2.32551,5.16549 c 3.32863,7.39366 3.17115,19.40668 -0.35023,26.71974 -3.11158,6.46216 -10.30606,13.00452 -16.05778,14.60233 -5.59916,1.55541 -14.71706,1.35431 -19.72425,-0.43503 z m 27.09254,-99.93015 c -3.18263,-5.4307 -5.14127,-15.569522 -3.00782,-15.569522 2.50604,5.436752 7.64319,10.287142 13.14377,13.671572 9.87952,4.78256 19.89735,2.85216 30.84188,-5.94314 2.40941,-1.93622 4.5431,-3.30497 4.74157,-3.04167 2.67241,4.14727 7.29511,7.53632 8.82311,12.35559 0,2.03338 -8.75332,7.88543 -15.66026,10.46961 -17.11935,4.93154 -28.77078,2.98073 -38.88225,-11.94244 z m 8.62705,-12.553542 11.14552,-12.358362 12.38615,11.465972 c -4.23663,3.489362 -7.29493,8.904702 -12.13499,11.651052 -3.82438,-2.81925 -9.53231,-6.14341 -11.39668,-10.758662 z"
       inkscape:connector-curvature="0" />
  </g>
</svg>
